<svg xmlns="http://www.w3.org/2000/svg" viewBox="0 0 80 100" width="100" height="125">
  <!-- Duke flexing muscles - pixelated style -->

  <!-- Body -->
  <rect fill="#e8c090" x="25" y="35" width="30" height="40"/>

  <!-- Head -->
  <rect fill="#e8c090" x="28" y="10" width="24" height="28"/>

  <!-- Flat-top hair -->
  <rect fill="#f0c040" x="26" y="4" width="28" height="10"/>
  <rect fill="#d4a030" x="26" y="4" width="28" height="4"/>

  <!-- Sunglasses -->
  <rect fill="#111" x="26" y="16" width="10" height="6"/>
  <rect fill="#111" x="44" y="16" width="10" height="6"/>
  <rect fill="#333" x="35" y="17" width="10" height="4"/>

  <!-- Mouth/grin -->
  <rect fill="#600" x="32" y="30" width="16" height="4"/>
  <rect fill="#fff" x="34" y="30" width="3" height="2"/>
  <rect fill="#fff" x="39" y="30" width="3" height="2"/>
  <rect fill="#fff" x="44" y="30" width="3" height="2"/>

  <!-- Tank top -->
  <rect fill="#aa0000" x="28" y="38" width="24" height="20"/>

  <!-- Left arm (flexed) -->
  <rect fill="#e8c090" x="5" y="35" width="22" height="12"/>
  <rect fill="#e8c090" x="5" y="25" width="12" height="15"/>
  <!-- Bicep bulge -->
  <ellipse fill="#d4a080" cx="12" cy="30" rx="8" ry="10"/>
  <ellipse fill="#e8c090" cx="14" cy="28" rx="6" ry="8"/>

  <!-- Right arm (flexed) -->
  <rect fill="#e8c090" x="53" y="35" width="22" height="12"/>
  <rect fill="#e8c090" x="63" y="25" width="12" height="15"/>
  <!-- Bicep bulge -->
  <ellipse fill="#d4a080" cx="68" cy="30" rx="8" ry="10"/>
  <ellipse fill="#e8c090" cx="66" cy="28" rx="6" ry="8"/>

  <!-- Fists -->
  <rect fill="#e8c090" x="5" y="20" width="10" height="10"/>
  <rect fill="#e8c090" x="65" y="20" width="10" height="10"/>

  <!-- Legs (just tops) -->
  <rect fill="#2a2a4a" x="25" y="72" width="14" height="28"/>
  <rect fill="#2a2a4a" x="41" y="72" width="14" height="28"/>

  <!-- Belt -->
  <rect fill="#4a3a2a" x="25" y="70" width="30" height="6"/>
  <rect fill="#ffd700" x="37" y="71" width="6" height="4"/>
</svg>
